<mxfile host="65bd71144e">
    <diagram id="CjbAjbNoj1I2n6Z4KfW6" name="Page-1">
        <mxGraphModel dx="931" dy="737" grid="1" gridSize="10" guides="1" tooltips="1" connect="1" arrows="1" fold="1" page="1" pageScale="1" pageWidth="850" pageHeight="1100" math="0" shadow="0">
            <root>
                <mxCell id="0"/>
                <mxCell id="1" parent="0"/>
                <mxCell id="VCr87URF9lmy609KNcGK-10" value="" style="group" parent="1" vertex="1" connectable="0">
                    <mxGeometry x="42" y="100" width="200" height="263" as="geometry"/>
                </mxCell>
                <mxCell id="VCr87URF9lmy609KNcGK-1" value="&lt;font style=&quot;font-size: 19px&quot;&gt;Matches&lt;br&gt;&lt;/font&gt;" style="swimlane;whiteSpace=wrap;html=1;" parent="VCr87URF9lmy609KNcGK-10" vertex="1">
                    <mxGeometry width="200" height="260" as="geometry"/>
                </mxCell>
                <mxCell id="VCr87URF9lmy609KNcGK-2" value="&lt;font style=&quot;font-size: 17px;&quot;&gt;&lt;u&gt;ID&lt;/u&gt;&lt;/font&gt;" style="whiteSpace=wrap;html=1;fontSize=19;" parent="VCr87URF9lmy609KNcGK-1" vertex="1">
                    <mxGeometry y="23" width="200" height="30" as="geometry"/>
                </mxCell>
                <mxCell id="VCr87URF9lmy609KNcGK-3" value="&lt;font style=&quot;font-size: 17px&quot;&gt;StadiumID&lt;/font&gt;" style="whiteSpace=wrap;html=1;fontSize=19;" parent="VCr87URF9lmy609KNcGK-10" vertex="1">
                    <mxGeometry y="54" width="200" height="30" as="geometry"/>
                </mxCell>
                <mxCell id="VCr87URF9lmy609KNcGK-4" value="&lt;font style=&quot;font-size: 17px&quot;&gt;Time&lt;br&gt;&lt;/font&gt;" style="whiteSpace=wrap;html=1;fontSize=19;" parent="VCr87URF9lmy609KNcGK-10" vertex="1">
                    <mxGeometry y="83" width="200" height="30" as="geometry"/>
                </mxCell>
                <mxCell id="VCr87URF9lmy609KNcGK-5" value="&lt;font style=&quot;font-size: 17px;&quot;&gt;Team1&lt;/font&gt;" style="whiteSpace=wrap;html=1;fontSize=19;" parent="VCr87URF9lmy609KNcGK-10" vertex="1">
                    <mxGeometry y="112" width="200" height="30" as="geometry"/>
                </mxCell>
                <mxCell id="VCr87URF9lmy609KNcGK-6" value="&lt;font style=&quot;font-size: 17px;&quot;&gt;Team2&lt;/font&gt;" style="whiteSpace=wrap;html=1;fontSize=19;" parent="VCr87URF9lmy609KNcGK-10" vertex="1">
                    <mxGeometry y="143" width="200" height="30" as="geometry"/>
                </mxCell>
                <mxCell id="VCr87URF9lmy609KNcGK-7" value="&lt;span style=&quot;font-size: 17px;&quot;&gt;Referee&lt;/span&gt;" style="whiteSpace=wrap;html=1;fontSize=19;" parent="VCr87URF9lmy609KNcGK-10" vertex="1">
                    <mxGeometry y="173" width="200" height="30" as="geometry"/>
                </mxCell>
                <mxCell id="VCr87URF9lmy609KNcGK-8" value="&lt;font style=&quot;font-size: 17px;&quot;&gt;Linesman1&lt;/font&gt;" style="whiteSpace=wrap;html=1;fontSize=19;" parent="VCr87URF9lmy609KNcGK-10" vertex="1">
                    <mxGeometry y="203" width="200" height="30" as="geometry"/>
                </mxCell>
                <mxCell id="VCr87URF9lmy609KNcGK-9" value="&lt;font style=&quot;font-size: 17px;&quot;&gt;Linesman2&lt;/font&gt;" style="whiteSpace=wrap;html=1;fontSize=19;" parent="VCr87URF9lmy609KNcGK-10" vertex="1">
                    <mxGeometry y="233" width="200" height="30" as="geometry"/>
                </mxCell>
                <mxCell id="VCr87URF9lmy609KNcGK-28" value="" style="group" parent="1" vertex="1" connectable="0">
                    <mxGeometry x="350" y="70" width="200" height="143" as="geometry"/>
                </mxCell>
                <mxCell id="VCr87URF9lmy609KNcGK-23" value="Reserve" style="swimlane;whiteSpace=wrap;html=1;fontSize=17;" parent="VCr87URF9lmy609KNcGK-28" vertex="1">
                    <mxGeometry width="200" height="141" as="geometry"/>
                </mxCell>
                <mxCell id="VCr87URF9lmy609KNcGK-24" value="&lt;u&gt;UserID&lt;br&gt;&lt;/u&gt;" style="whiteSpace=wrap;html=1;fontSize=17;" parent="VCr87URF9lmy609KNcGK-23" vertex="1">
                    <mxGeometry y="23" width="200" height="30" as="geometry"/>
                </mxCell>
                <mxCell id="VCr87URF9lmy609KNcGK-25" value="&lt;u&gt;MatchID&lt;/u&gt;" style="whiteSpace=wrap;html=1;fontSize=17;" parent="VCr87URF9lmy609KNcGK-23" vertex="1">
                    <mxGeometry y="54" width="200" height="30" as="geometry"/>
                </mxCell>
                <mxCell id="VCr87URF9lmy609KNcGK-26" value="SeatNo" style="whiteSpace=wrap;html=1;fontSize=17;" parent="VCr87URF9lmy609KNcGK-23" vertex="1">
                    <mxGeometry y="83" width="200" height="30" as="geometry"/>
                </mxCell>
                <mxCell id="VCr87URF9lmy609KNcGK-27" value="TicketID" style="whiteSpace=wrap;html=1;fontSize=17;" parent="VCr87URF9lmy609KNcGK-28" vertex="1">
                    <mxGeometry y="113" width="200" height="30" as="geometry"/>
                </mxCell>
                <mxCell id="VCr87URF9lmy609KNcGK-31" style="edgeStyle=orthogonalEdgeStyle;rounded=0;orthogonalLoop=1;jettySize=auto;html=1;exitX=0;exitY=0.5;exitDx=0;exitDy=0;fontSize=17;entryX=1;entryY=0.5;entryDx=0;entryDy=0;" parent="1" source="VCr87URF9lmy609KNcGK-25" target="VCr87URF9lmy609KNcGK-2" edge="1">
                    <mxGeometry relative="1" as="geometry">
                        <mxPoint x="280" y="155" as="targetPoint"/>
                    </mxGeometry>
                </mxCell>
                <mxCell id="VCr87URF9lmy609KNcGK-32" style="edgeStyle=orthogonalEdgeStyle;rounded=0;orthogonalLoop=1;jettySize=auto;html=1;exitX=1;exitY=0.25;exitDx=0;exitDy=0;entryX=0;entryY=0.5;entryDx=0;entryDy=0;fontSize=17;" parent="1" source="VCr87URF9lmy609KNcGK-23" target="VCr87URF9lmy609KNcGK-12" edge="1">
                    <mxGeometry relative="1" as="geometry"/>
                </mxCell>
                <mxCell id="58" value="" style="group" vertex="1" connectable="0" parent="1">
                    <mxGeometry x="630" y="70" width="200" height="354" as="geometry"/>
                </mxCell>
                <mxCell id="56" value="" style="group" vertex="1" connectable="0" parent="58">
                    <mxGeometry width="200" height="354" as="geometry"/>
                </mxCell>
                <mxCell id="VCr87URF9lmy609KNcGK-11" value="Users" style="swimlane;whiteSpace=wrap;html=1;fontSize=17;" parent="56" vertex="1">
                    <mxGeometry width="200" height="320" as="geometry"/>
                </mxCell>
                <mxCell id="VCr87URF9lmy609KNcGK-12" value="&lt;u&gt;ID&lt;/u&gt;" style="rounded=0;whiteSpace=wrap;html=1;fontSize=17;" parent="VCr87URF9lmy609KNcGK-11" vertex="1">
                    <mxGeometry y="23" width="200" height="30" as="geometry"/>
                </mxCell>
                <mxCell id="VCr87URF9lmy609KNcGK-16" value="Email" style="rounded=0;whiteSpace=wrap;html=1;fontSize=17;" parent="VCr87URF9lmy609KNcGK-11" vertex="1">
                    <mxGeometry y="143" width="200" height="30" as="geometry"/>
                </mxCell>
                <mxCell id="VCr87URF9lmy609KNcGK-19" value="Password" style="rounded=0;whiteSpace=wrap;html=1;fontSize=17;" parent="VCr87URF9lmy609KNcGK-11" vertex="1">
                    <mxGeometry y="234" width="200" height="30" as="geometry"/>
                </mxCell>
                <mxCell id="VCr87URF9lmy609KNcGK-21" value="Role" style="rounded=0;whiteSpace=wrap;html=1;fontSize=17;" parent="56" vertex="1">
                    <mxGeometry y="293" width="200" height="30" as="geometry"/>
                </mxCell>
                <mxCell id="57" value="" style="group" vertex="1" connectable="0" parent="58">
                    <mxGeometry y="53" width="200" height="240" as="geometry"/>
                </mxCell>
                <mxCell id="VCr87URF9lmy609KNcGK-13" value="Username" style="rounded=0;whiteSpace=wrap;html=1;fontSize=17;" parent="57" vertex="1">
                    <mxGeometry width="200" height="30" as="geometry"/>
                </mxCell>
                <mxCell id="VCr87URF9lmy609KNcGK-14" value="FirstName" style="rounded=0;whiteSpace=wrap;html=1;fontSize=17;" parent="57" vertex="1">
                    <mxGeometry y="30" width="200" height="30" as="geometry"/>
                </mxCell>
                <mxCell id="VCr87URF9lmy609KNcGK-15" value="LastName" style="rounded=0;whiteSpace=wrap;html=1;fontSize=17;" parent="57" vertex="1">
                    <mxGeometry y="60" width="200" height="30" as="geometry"/>
                </mxCell>
                <mxCell id="VCr87URF9lmy609KNcGK-17" value="BirthDate" style="rounded=0;whiteSpace=wrap;html=1;fontSize=17;" parent="57" vertex="1">
                    <mxGeometry y="120" width="200" height="30" as="geometry"/>
                </mxCell>
                <mxCell id="VCr87URF9lmy609KNcGK-18" value="Gender" style="rounded=0;whiteSpace=wrap;html=1;fontSize=17;" parent="57" vertex="1">
                    <mxGeometry y="150" width="200" height="30" as="geometry"/>
                </mxCell>
                <mxCell id="VCr87URF9lmy609KNcGK-20" value="Nationality" style="rounded=0;whiteSpace=wrap;html=1;fontSize=17;" parent="57" vertex="1">
                    <mxGeometry y="210" width="200" height="30" as="geometry"/>
                </mxCell>
                <mxCell id="59" value="" style="edgeStyle=none;html=1;fontSize=17;entryX=0;entryY=0.5;entryDx=0;entryDy=0;" edge="1" parent="1" source="VCr87URF9lmy609KNcGK-3" target="VCr87URF9lmy609KNcGK-34">
                    <mxGeometry relative="1" as="geometry">
                        <Array as="points">
                            <mxPoint x="290" y="169"/>
                            <mxPoint x="290" y="328"/>
                        </Array>
                    </mxGeometry>
                </mxCell>
                <mxCell id="63" value="" style="group" vertex="1" connectable="0" parent="1">
                    <mxGeometry x="330" y="290" width="220" height="140" as="geometry"/>
                </mxCell>
                <mxCell id="64" value="" style="group" vertex="1" connectable="0" parent="63">
                    <mxGeometry width="220" height="140" as="geometry"/>
                </mxCell>
                <mxCell id="65" value="" style="group" vertex="1" connectable="0" parent="64">
                    <mxGeometry width="220" height="140" as="geometry"/>
                </mxCell>
                <mxCell id="VCr87URF9lmy609KNcGK-37" value="" style="group" parent="65" vertex="1" connectable="0">
                    <mxGeometry width="210" height="110" as="geometry"/>
                </mxCell>
                <mxCell id="VCr87URF9lmy609KNcGK-33" value="Stadiums" style="swimlane;whiteSpace=wrap;html=1;fontSize=17;container=0;" parent="VCr87URF9lmy609KNcGK-37" vertex="1">
                    <mxGeometry x="20" width="200" height="110" as="geometry"/>
                </mxCell>
                <mxCell id="VCr87URF9lmy609KNcGK-34" value="&lt;u&gt;ID&lt;/u&gt;" style="whiteSpace=wrap;html=1;fontSize=17;" parent="VCr87URF9lmy609KNcGK-33" vertex="1">
                    <mxGeometry y="20" width="200" height="30" as="geometry"/>
                </mxCell>
                <mxCell id="62" value="Name" style="whiteSpace=wrap;html=1;fontSize=17;" vertex="1" parent="VCr87URF9lmy609KNcGK-33">
                    <mxGeometry y="50" width="200" height="30" as="geometry"/>
                </mxCell>
                <mxCell id="VCr87URF9lmy609KNcGK-35" value="NumRows" style="whiteSpace=wrap;html=1;fontSize=17;" parent="VCr87URF9lmy609KNcGK-33" vertex="1">
                    <mxGeometry y="80" width="200" height="27" as="geometry"/>
                </mxCell>
                <mxCell id="VCr87URF9lmy609KNcGK-36" value="NumSeatsPerRow" style="whiteSpace=wrap;html=1;fontSize=17;" parent="65" vertex="1">
                    <mxGeometry x="20" y="109" width="200" height="30" as="geometry"/>
                </mxCell>
                <mxCell id="72" value="&lt;div&gt;&amp;nbsp; &amp;nbsp; Role varchar(1) not null&amp;nbsp; -- 0 for admin, 1 for Manager, 2 for Fan Who Wants Managment, 3 for Fan&lt;/div&gt;&lt;div&gt;&lt;br&gt;&lt;/div&gt;" style="ellipse;whiteSpace=wrap;html=1;fontSize=17;" vertex="1" parent="1">
                    <mxGeometry x="420" y="490" width="410" height="160" as="geometry"/>
                </mxCell>
                <mxCell id="73" style="edgeStyle=none;html=1;entryX=0.53;entryY=-0.01;entryDx=0;entryDy=0;entryPerimeter=0;fontSize=17;" edge="1" parent="1" source="VCr87URF9lmy609KNcGK-21" target="72">
                    <mxGeometry relative="1" as="geometry"/>
                </mxCell>
            </root>
        </mxGraphModel>
    </diagram>
</mxfile>